<svg xmlns="http://www.w3.org/2000/svg" width="902.776" height="664.811" viewBox="0 0 902.776 664.811"><defs><style>.a,.d{fill:#6c63ff;}.a,.b{opacity:0.1;}.c{fill:none;stroke:#535461;stroke-miterlimit:10;stroke-width:2px;}.e{opacity:0.25;}.f{fill:#535461;}.g{fill:#2fc4a9;}.h{fill:#eaeaf3;}.i{fill:#fff;}.j{fill:#a2a0bb;}.k{fill:#dddaf4;}.l{fill:#a6a4bf;}</style></defs><g transform="translate(-926.999 -2445.846)"><g transform="translate(-196.688 81.846)"><path class="a" d="M63.3,476c14.285,61.057,44.525,113.836,92.318,139.419,99.32,53.166,323.314,25.747,490.488-5.76A382.807,382.807,0,0,0,863.788,485.216Z" transform="translate(1070.147 2241.809)"/><path class="a" d="M944.916,112.46H853.191a7.928,7.928,0,1,1,0-15.857h15.857a7.928,7.928,0,0,1,0-15.857H857.725a7.928,7.928,0,0,1,0-15.857H905.6c-10.623-4.937-23.04-8.451-37.342-10.294-130.54-16.77-177.147-5.678-193.588,5.76-20.284,14.071-42.913,24.423-67.1,29.409-80.542,16.614-231.169,36.609-367.691-6.4C172.028,61.969,121.594,98.109,91.37,158.475H960.839c-1.136-17.544-4.534-33.738-10.771-47.924a7.883,7.883,0,0,1-5.151,1.909Z" transform="translate(1065.175 2317.97)"/><path class="a" d="M53.415,321.15A404.078,404.078,0,0,0,56.97,427.67L862.3,457.121a378.52,378.52,0,0,0,55.955-85.332Zm318.516,75.992H356.075a7.928,7.928,0,1,1,0,15.857H264.349a7.928,7.928,0,1,1,0-15.857h15.857a7.928,7.928,0,1,1,0-15.857H268.883a7.928,7.928,0,1,1,0-15.857h91.725a7.928,7.928,0,1,1,0,15.857h11.323a7.928,7.928,0,1,1,0,15.857Z" transform="translate(1072.247 2269.238)"/><path class="a" d="M954.261,183.34,75.033,204.735C64.343,232.218,57.291,263.3,54,295.522H938.857a375.605,375.605,0,0,0,12.779-57.872C954.269,218.707,955.322,200.4,954.261,183.34ZM232.5,253.416H216.64a7.928,7.928,0,0,1,0,15.857H124.915a7.928,7.928,0,1,1,0-15.857h15.857a7.928,7.928,0,1,1,0-15.857H129.449a7.928,7.928,0,1,1,0-15.857h91.725a7.928,7.928,0,1,1,0,15.857H232.5a7.928,7.928,0,1,1,0,15.857Z" transform="translate(1071.794 2293.648)"/><g class="b" transform="translate(1675.728 2696.333)"><path class="c" d="M729,637.831s23.2-57.189,66.537-78.4a93.52,93.52,0,0,0,42.468-41.185,157.29,157.29,0,0,0,10.64-26.743" transform="translate(-723.497 -457.27)"/><path class="d" d="M901.485,470.6c-4.518,5.678-27.9,13.989-27.9,13.989s2.814-24.686,7.332-30.323a13.166,13.166,0,0,1,20.572,16.359Z" transform="translate(-749.108 -449.901)"/><path class="d" d="M891.066,524.253c-6.879,2.312-31.006-3.439-31.006-3.439s15.758-19.156,22.637-21.469a13.166,13.166,0,0,1,8.369,24.908Z" transform="translate(-746.712 -458.581)"/><path class="d" d="M839.492,588.735c-7.1-1.473-25.032-18.622-25.032-18.622s23.271-8.583,30.38-7.11a13.166,13.166,0,0,1-5.349,25.723Z" transform="translate(-738.635 -469.905)"/><path class="d" d="M787.891,628.536c-7.249-.255-27.821-14.12-27.821-14.12s21.493-12.368,28.743-12.137a13.166,13.166,0,1,1-.922,26.258Z" transform="translate(-729 -476.891)"/><path class="d" d="M832.754,502.988c.93,7.2,16.638,26.389,16.638,26.389s10.344-22.547,9.422-29.747a13.166,13.166,0,0,0-26.06,3.357Z" transform="translate(-741.87 -456.826)"/><path class="d" d="M773.358,549.208c3.036,6.583,23.773,20.2,23.773,20.2s3.127-24.612.09-31.195a13.166,13.166,0,1,0-23.863,11Z" transform="translate(-731.073 -464.05)"/><path class="d" d="M722.565,603.944c1.876,7.011,20.02,23.929,20.02,23.929s7.241-23.723,5.357-30.734a13.166,13.166,0,0,0-25.377,6.805Z" transform="translate(-722.312 -474.401)"/><path class="e" d="M901.485,470.6c-4.518,5.678-27.9,13.989-27.9,13.989s2.814-24.686,7.332-30.323a13.166,13.166,0,0,1,20.572,16.359Z" transform="translate(-749.108 -449.901)"/><path class="e" d="M891.066,524.253c-6.879,2.312-31.006-3.439-31.006-3.439s15.758-19.156,22.637-21.469a13.166,13.166,0,0,1,8.369,24.908Z" transform="translate(-746.712 -458.581)"/><path class="e" d="M839.492,588.735c-7.1-1.473-25.032-18.622-25.032-18.622s23.271-8.583,30.38-7.11a13.166,13.166,0,0,1-5.349,25.723Z" transform="translate(-738.635 -469.905)"/><path class="e" d="M787.891,628.536c-7.249-.255-27.821-14.12-27.821-14.12s21.493-12.368,28.743-12.137a13.166,13.166,0,1,1-.922,26.258Z" transform="translate(-729 -476.891)"/><path class="e" d="M832.754,502.988c.93,7.2,16.638,26.389,16.638,26.389s10.344-22.547,9.422-29.747a13.166,13.166,0,0,0-26.06,3.357Z" transform="translate(-741.87 -456.826)"/><path class="e" d="M773.358,549.208c3.036,6.583,23.773,20.2,23.773,20.2s3.127-24.612.09-31.195a13.166,13.166,0,1,0-23.863,11Z" transform="translate(-731.073 -464.05)"/><path class="e" d="M722.565,603.944c1.876,7.011,20.02,23.929,20.02,23.929s7.241-23.723,5.357-30.734a13.166,13.166,0,0,0-25.377,6.805Z" transform="translate(-722.312 -474.401)"/></g><g class="b" transform="translate(1641.129 2575.417)"><path class="c" d="M709,529.453s2.929-61.649,36.774-96.037a93.519,93.519,0,0,0,26.332-52.952,157.279,157.279,0,0,0,1.177-28.735" transform="translate(-685.355 -311.596)"/><path class="d" d="M807.53,321.293c-2.378,6.854-21.683,22.431-21.683,22.431s-5.513-24.184-3.135-31.039a13.166,13.166,0,1,1,24.818,8.607Z" transform="translate(-698.306 -302.957)"/><path class="d" d="M815.337,374.824c-5.76,4.46-30.4,7.044-30.4,7.044s8.517-23.3,14.236-27.764a13.166,13.166,0,1,1,16.161,20.72Z" transform="translate(-698.806 -311.427)"/><path class="d" d="M787.018,452.858c-7.192.963-29.788-9.266-29.788-9.266s19.115-15.816,26.332-16.778a13.166,13.166,0,1,1,3.489,26.044Z" transform="translate(-693.898 -324.85)"/><path class="d" d="M751.882,507.566c-6.929,2.164-30.932-4.114-30.932-4.114s16.161-18.819,23.09-20.983a13.166,13.166,0,0,1,7.842,25.081Z" transform="translate(-687.472 -334.687)"/><path class="d" d="M752.483,375.275c3.291,6.484,24.456,19.379,24.456,19.379s2.279-24.686-.979-31.187a13.166,13.166,0,0,0-23.477,11.808Z" transform="translate(-692.87 -312.521)"/><path class="d" d="M712.031,438.847c5.052,5.209,29.13,11.175,29.13,11.175s-5.209-24.25-10.261-29.459a13.166,13.166,0,0,0-18.868,18.292Z" transform="translate(-685.333 -323.182)"/><path class="d" d="M682.03,507.081c4.114,5.99,26.826,15.939,26.826,15.939s-1.037-24.785-5.135-30.775a13.166,13.166,0,0,0-21.683,14.812Z" transform="translate(-680.265 -335.609)"/></g><path class="a" d="M351.19,814.635c32.355,10.878,71.828,4.262,108.536,5.028,5.028.107,10.343.42,14.375,2.3s6.015,4.937,8.78,7.529c10.286,9.7,31.36,12.82,49.784,11.175s35.318-7.093,52.664-11.24c30.051-7.175,64.406-10.434,94.046-2.617,2.724.716,5.587,1.539,8.5,1.259,6.5-.642,8.434-5.842,12.977-8.813,8.229-5.365,26.027-3.909,29.623-10.977,2.115-4.114-2.748-8.393-8.04-11.224-20.259-10.829-49.241-12.615-75.753-10.944s-52.581,6.279-79.234,6.295c-33.2,0-65.286-7.068-98.168-9.965-22.777-2.008-47.636-1.761-68.989,4.114C377.209,792.985,372.107,807.336,351.19,814.635Z" transform="translate(1019.152 2187.731)"/><rect class="f" width="5.76" height="81.464" transform="translate(1424.463 2516.165)"/><rect class="f" width="5.76" height="46.081" transform="translate(1424.463 2625.607)"/><rect class="f" width="259.204" height="562.843" rx="47.1" transform="translate(1428.577 2436.346)"/><rect class="g" width="259.204" height="512.648" rx="47.1" transform="translate(1428.577 2462.679)"/><rect class="h" width="42.789" height="5.76" rx="2.88" transform="translate(1537.196 2448.69)"/><circle class="h" cx="4.114" cy="4.114" r="4.114" transform="translate(1590.682 2447.867)"/><path class="i" d="M476.419,378.276V408.4a7.125,7.125,0,0,1-7.15,7.2c-3.977,0-7.839-3.222-7.839-7.2V378.276c0-3.928,3.849-7.15,7.839-7.15A7.179,7.179,0,0,1,476.419,378.276Zm2.81,40.821a7.678,7.678,0,0,0,7.695,7.695H492.1l.078,15.889c0,9.593,14.354,9.518,14.354,0V426.8H516.2v15.889c0,9.543,14.441,9.568,14.441,0V426.8h5.252a7.67,7.67,0,0,0,7.645-7.695V372.438h-64.31Zm64.483-49.168H478.936c0-11.14,6.655-20.8,16.536-25.844l-4.951-9.18c-.726-1.275,1.118-2.063,1.741-.986l5.046,9.258a35.127,35.127,0,0,1,28.159,0l5.017-9.23a1,1,0,1,1,1.741.986l-4.951,9.151C537.057,349.127,543.712,358.8,543.712,369.93Zm-44.386-14.44a2.723,2.723,0,1,0,0,.008Zm29.488,0a2.708,2.708,0,1,0,0,.008Zm24.648,15.629a7.129,7.129,0,0,0-7.15,7.15v30.119a7.175,7.175,0,0,0,7.15,7.2c4.006,0,7.839-3.222,7.839-7.2V378.268c-.012-3.994-3.862-7.142-7.839-7.142Z" transform="translate(1049.282 2233.975)"/><g transform="translate(1500.097 2748.897)"><g transform="translate(0)"><path class="i" d="M35.519,0H36.4a26.621,26.621,0,0,1-6.7,20.062c-3.991,4.711-9.455,9.28-18.293,8.587-.59-8.642,2.762-14.706,6.824-19.439A29.474,29.474,0,0,1,35.519,0Z" transform="translate(39.077)"/><path class="i" d="M103.455,66.766v.246A72.33,72.33,0,0,1,93.1,86.964c-3.947,5.432-8.783,12.741-17.42,12.741-7.462,0-12.419-4.8-20.067-4.929-8.09-.131-12.539,4.012-19.936,5.055H33.16c-5.432-.786-9.815-5.088-13.009-8.964A78.532,78.532,0,0,1,2.1,45.689V40.126c.573-13.549,7.157-24.565,15.907-29.9C22.63,7.383,28.978,4.965,36.048,6.046a45.372,45.372,0,0,1,8.838,2.533c2.571.988,5.786,2.74,8.833,2.648,2.063-.06,4.116-1.135,6.2-1.894,6.092-2.2,12.064-4.722,19.936-3.537,9.46,1.43,16.175,5.634,20.324,12.119-8,5.093-14.33,12.769-13.249,25.875C87.886,55.695,94.808,62.66,103.455,66.766Z" transform="translate(-2.104 24.486)"/></g></g></g><path class="j" d="M69.317,15.958H67.995V12.844a3.976,3.976,0,0,0-3.859-4.077H59.991a3.977,3.977,0,0,0-3.858,4.077v10.57H45.467v-.336a3.859,3.859,0,0,0-3.273-3.932,3.53,3.53,0,0,0-2.792.978q-.1.094-.187.193-.09-.1-.187-.193a3.516,3.516,0,0,0-2.793-.978,3.477,3.477,0,0,0-2.254,1.2,3.48,3.48,0,0,0-5.271-.021,3.487,3.487,0,0,0-3.973-.925,3.831,3.831,0,0,0-2.28,3.56v.455H17.044V12.844a3.977,3.977,0,0,0-3.859-4.077H9.04a3.976,3.976,0,0,0-3.859,4.077v3.114H3.859A3.977,3.977,0,0,0,0,20.035V37.89a3.977,3.977,0,0,0,3.859,4.077H5.181v3.114A3.976,3.976,0,0,0,9.04,49.158h4.145a3.977,3.977,0,0,0,3.859-4.077V34.511h5.424a.471.471,0,0,0,0,.069,1.089,1.089,0,0,0-.013.138v4.349a11.925,11.925,0,0,0,1.342,5.5l3.91,7.483V74.429a1.03,1.03,0,0,0,1,1.057H44.466a1.03,1.03,0,0,0,1-1.057V52.112l4.1-6.241a7.081,7.081,0,0,0,1.155-3.9V34.51h5.413v10.57a3.977,3.977,0,0,0,3.858,4.077h4.145A3.976,3.976,0,0,0,68,45.079V41.967h1.322a3.977,3.977,0,0,0,3.859-4.077V20.035A3.977,3.977,0,0,0,69.317,15.958Zm-29.1,7a1.763,1.763,0,0,1,.535-1.274A1.571,1.571,0,0,1,42,21.251a1.772,1.772,0,0,1,1.463,1.828v.336H40.118A1.1,1.1,0,0,0,40.215,22.96Zm-3.79-1.709c.054-.005.109-.008.163-.008a1.674,1.674,0,0,1,1.626,1.718,1.1,1.1,0,0,0,.1.455H36.588a3.477,3.477,0,0,0-1.626.408v-.743A1.772,1.772,0,0,1,36.425,21.251ZM38.214,34.3a1.628,1.628,0,1,1-3.252,0V30.633a3.638,3.638,0,0,0,1.739.445h1.513ZM31.336,21.243a1.675,1.675,0,0,1,1.625,1.718V34.3a1.628,1.628,0,1,1-3.251,0V22.96a1.675,1.675,0,0,1,1.626-1.718ZM24.457,22.96a1.628,1.628,0,1,1,3.252,0V34.3a1.628,1.628,0,1,1-3.252,0ZM3.859,39.853A1.915,1.915,0,0,1,2,37.89V20.035a1.915,1.915,0,0,1,1.858-1.963H5.181V39.853Zm11.184,5.228a1.915,1.915,0,0,1-1.858,1.963H9.04a1.914,1.914,0,0,1-1.858-1.963V12.844A1.914,1.914,0,0,1,9.04,10.881h4.145a1.915,1.915,0,0,1,1.858,1.963Zm2-19.552h5.413V32.4H17.044ZM48.719,41.974a4.891,4.891,0,0,1-.8,2.694l-4.276,6.511a1.1,1.1,0,0,0-.178.6v21.59H29.71V51.781a1.1,1.1,0,0,0-.125-.511L25.55,43.549a9.712,9.712,0,0,1-1.093-4.481V37.725a3.464,3.464,0,0,0,4.252-.785,3.479,3.479,0,0,0,5.252,0,3.48,3.48,0,0,0,5.253,0,3.487,3.487,0,0,0,3.973.924,3.831,3.831,0,0,0,2.28-3.559V30.021a1.03,1.03,0,0,0-1-1.057H36.7a1.732,1.732,0,0,1-1.73-1.546c-.005-.054-.007-.108-.008-.161v-.023a1.674,1.674,0,0,1,1.624-1.706h7.657l.18.011h.011a4.62,4.62,0,0,1,4.283,4.716V41.973Zm-8.5-10.9h3.251V34.3a1.628,1.628,0,1,1-3.251,0ZM50.72,32.4v-2.14a7.027,7.027,0,0,0-1.8-4.726h7.211V32.4ZM65.994,45.079a1.915,1.915,0,0,1-1.858,1.963H59.991a1.915,1.915,0,0,1-1.858-1.963V12.844a1.915,1.915,0,0,1,1.858-1.963h4.145a1.915,1.915,0,0,1,1.858,1.963V45.081Zm5.181-7.189a1.915,1.915,0,0,1-1.858,1.963H67.995V18.072h1.322a1.915,1.915,0,0,1,1.858,1.963Z" transform="matrix(0.875, 0.485, -0.485, 0.875, 1591.197, 2573.276)"/><path class="j" d="M92.275,61.066H73.307a1.583,1.583,0,1,0,0,3.166H92.275a1.583,1.583,0,1,0,0-3.166ZM75.31,56.208H90.271a1.583,1.583,0,1,0,0-3.166H75.31a1.583,1.583,0,1,0,0,3.166Zm68.773-6.773a4.029,4.029,0,0,0-1.188-2.868l-12.64-12.64a4.056,4.056,0,0,0-5.736,0l-4.011,4.011L118.8,36.227a4.061,4.061,0,0,0-5.736,0h0l-2.948,2.948a4.061,4.061,0,0,0,0,5.736l5.833,5.833L101.974,64.715a10.641,10.641,0,0,0-1.134-1.707,9.858,9.858,0,0,1-2.221-6.225V52.466a9.859,9.859,0,0,1,2.221-6.225,10.694,10.694,0,0,0,2.409-6.752V30.065a8.308,8.308,0,0,0-8.065-8.294V17.01a5.9,5.9,0,0,0-5.891-5.891h-.726v-2.5h.138a2.944,2.944,0,0,0,2.82-3.79l-.4-1.331a4.874,4.874,0,0,0-4.7-3.5H79.153a4.875,4.875,0,0,0-4.7,3.5l-.4,1.331a2.944,2.944,0,0,0,2.82,3.79h.138v2.5h-.726A5.852,5.852,0,0,0,74,11.58a1.583,1.583,0,0,0,1.23,2.917,2.7,2.7,0,0,1,1.058-.212H89.294a2.728,2.728,0,0,1,2.725,2.725v4.754H73.562V18.658a1.583,1.583,0,1,0-3.166,0V21.77a8.309,8.309,0,0,0-8.065,8.294v9.424a10.694,10.694,0,0,0,2.409,6.752,9.86,9.86,0,0,1,2.221,6.225v4.317a9.859,9.859,0,0,1-2.221,6.225,10.694,10.694,0,0,0-2.409,6.752v7.1a10.638,10.638,0,0,0,8.792,10.462L69.947,88.5a4.055,4.055,0,0,0,0,5.736l12.64,12.64a4.056,4.056,0,0,0,5.736,0l4.011-4.011,1.711,1.711a4.061,4.061,0,0,0,5.736,0l2.948-2.948a4.094,4.094,0,0,0,.344-.391,1.583,1.583,0,0,0-2.507-1.933.837.837,0,0,1-.076.086l-2.947,2.948a.891.891,0,0,1-1.259,0l-21.8-21.8a.891.891,0,0,1,0-1.259l2.947-2.947a.89.89,0,0,1,1.258,0L93.536,91.177h0l4.589,4.589a1.583,1.583,0,1,0,2.239-2.239l-3.471-3.471,29.183-29.183,5.833,5.833a4.056,4.056,0,0,0,5.736,0l2.948-2.948a4.061,4.061,0,0,0,0-5.736l-1.711-1.711,4.011-4.011a4.028,4.028,0,0,0,1.188-2.868ZM85.4,11.119H80.179v-2.5H85.4ZM77.173,5.451l.313-1.046a1.729,1.729,0,0,1,1.666-1.239h7.276a1.729,1.729,0,0,1,1.666,1.239l.313,1.046ZM65.5,30.065a5.14,5.14,0,0,1,5.134-5.135H94.95a5.14,5.14,0,0,1,5.134,5.135v2.847A46.226,46.226,0,0,0,91.1,34.459a30.31,30.31,0,0,1-16.619,0A46.232,46.232,0,0,0,65.5,32.912V30.065ZM76.2,86.727l13.9,13.9-4.011,4.011a.889.889,0,0,1-1.258,0L72.185,92a.89.89,0,0,1,0-1.258ZM80.93,74.093a4.056,4.056,0,0,0-5.736,0l-2.948,2.948a4.061,4.061,0,0,0,0,5.736l1.542,1.542h-.835A7.466,7.466,0,0,1,65.5,76.862v-7.1a7.521,7.521,0,0,1,1.694-4.748,13.033,13.033,0,0,0,2.937-8.229V52.466a13.033,13.033,0,0,0-2.937-8.229A7.519,7.519,0,0,1,65.5,39.489v-3.4a42.91,42.91,0,0,1,8.2,1.438,33.448,33.448,0,0,0,18.194,0,42.908,42.908,0,0,1,8.2-1.438v3.4a7.522,7.522,0,0,1-1.694,4.748,13.033,13.033,0,0,0-2.936,8.229v4.317a13.033,13.033,0,0,0,2.936,8.229,7.536,7.536,0,0,1,1.2,2.085L86.763,79.927ZM94.657,87.82,89,82.165l29.183-29.182,5.655,5.655Zm43.7-26.3-2.948,2.948a.889.889,0,0,1-1.258,0L119.3,49.625h0l-6.952-6.952a.891.891,0,0,1,0-1.259l2.947-2.948a.891.891,0,0,1,1.259,0l21.8,21.8a.891.891,0,0,1,0,1.259Zm2.3-11.458-4.011,4.011-13.9-13.9,4.011-4.011a.89.89,0,0,1,1.258,0l12.64,12.64a.89.89,0,0,1,0,1.258Z" transform="translate(990.236 2829.327)"/><g transform="translate(949.868 2589.143)"><g transform="translate(0 107.802)"><path class="k" d="M120.953,174.4H113a9.5,9.5,0,0,0-6.8-8.749L104.056,165l1.561-22.524a8.017,8.017,0,0,0-.043-1.531,12.592,12.592,0,0,0,3.215.417,12.448,12.448,0,0,0,8.859-3.67l2.044-2.044a12.534,12.534,0,0,0,1.069-16.505,8.865,8.865,0,0,0-2.2-8.767,8.795,8.795,0,0,0-15.013,6.215,12.593,12.593,0,0,0-1.578,1.338l-2.044,2.044a12.448,12.448,0,0,0-3.67,8.859,12.721,12.721,0,0,0,.122,1.746,42.97,42.97,0,0,0-24.243,2.967L64.4,136.93l-.082-.025-.013,0a15.466,15.466,0,0,0-18.455,7.553,179.143,179.143,0,0,1-31.624,8.706H6.586A6.594,6.594,0,0,0,0,159.746v17.061a2.409,2.409,0,0,0,2.409,2.409H120.953a2.409,2.409,0,0,0,0-4.819Zm-6.712-40.111a7.713,7.713,0,0,1-12.594-8.366l3.2,3.2a2.411,2.411,0,0,0,2.435.592,5.113,5.113,0,0,1,5.188,1.261l2.545,2.545Zm-7.024-14.308a2.409,2.409,0,0,0,1.232-2.6,3.976,3.976,0,1,1,7.4,1.1,2.41,2.41,0,0,0,.436,2.863l.017.017a7.722,7.722,0,0,1,1.683,8.318l-2.112-2.113a9.91,9.91,0,0,0-8.568-2.8l-2.675-2.676.751-.751A7.709,7.709,0,0,1,107.218,119.979ZM74.069,137.964a38.114,38.114,0,0,1,19.273-2.94,8.085,8.085,0,0,0-3.87,6.895V152.9a67.231,67.231,0,0,1-13.559,1.384h-7.6L66.428,141.3ZM48.455,148.62a2.41,2.41,0,0,0,1.346-1.277,10.648,10.648,0,0,1,11.737-6.182l2.082,14.37a29.147,29.147,0,0,1-11.233,3.9,2.409,2.409,0,1,0,.691,4.769,33.471,33.471,0,0,0,13.888-5.087h8.946a72.055,72.055,0,0,0,13.559-1.29v12.109a9.232,9.232,0,0,0,1.15,4.471H12.593a13.1,13.1,0,0,0,2.4-4.486l16.655-2.5a2.409,2.409,0,1,0-.715-4.766l-15.161,2.276.8-7.3A183.466,183.466,0,0,0,48.455,148.62ZM4.819,159.746a1.769,1.769,0,0,1,1.767-1.767h5.1l-.985,8.985a8.333,8.333,0,0,1-5.884,7.081ZM98.761,174.4a4.476,4.476,0,0,1-4.471-4.471V141.919a3.267,3.267,0,0,1,3.263-3.263,3.263,3.263,0,0,1,3.256,3.489l-1.694,24.442a2.41,2.41,0,0,0,1.709,2.474l3.989,1.2a4.712,4.712,0,0,1,3.359,4.135Z" transform="translate(0 -107.802)"/><path class="k" d="M166.8,333.469a2.406,2.406,0,1,0-1.706-.706A2.428,2.428,0,0,0,166.8,333.469Z" transform="translate(-124.781 -275.438)"/></g></g><path class="l" d="M118.249,32.1a1.086,1.086,0,0,0-1.244-.9L108.6,32.562a1.085,1.085,0,0,0,.171,2.156c.057,0,1.77-.271,1.77-.271l-4.76,9.224h-1.719a2.37,2.37,0,0,1-2.365-2.373v-.2c.075,0,.15.009.226.009a4.792,4.792,0,0,0,3.006-8.526l.9-.709a1.085,1.085,0,1,0-1.345-1.7l-1.394,1.1L89.989,22.032a11.427,11.427,0,0,0,6.646-6.726A11.385,11.385,0,1,0,77.1,18.566a10.57,10.57,0,0,0-4.953,3.811L66.51,30.372a9.59,9.59,0,0,0-.588,10.088,5.7,5.7,0,0,0-5.605,4.061,1.085,1.085,0,0,0,.728,1.35l9.036,2.7,1.471,11.657A15.831,15.831,0,0,0,56.525,76.044a6.142,6.142,0,0,0,6.135,6.135H99.006a1.085,1.085,0,0,0,1.085-1.085V74.571a14.327,14.327,0,0,0-3.173-9l10.2-19.731h3.355a4.535,4.535,0,0,0,1.243-8.9l1.515-2.931,4.119-.665A1.086,1.086,0,0,0,118.249,32.1ZM77.291,8.224A9.215,9.215,0,1,1,87.719,20.432l-.852-.6A10.529,10.529,0,0,0,79.5,17.98,9.193,9.193,0,0,1,77.291,8.224Zm-9.007,23.4,5.637-7.994a8.392,8.392,0,0,1,11.7-2.023l17.816,12.562a2.622,2.622,0,1,1-3.022,4.286L85.56,27.981a1.085,1.085,0,1,0-1.251,1.773l.3.21L80.387,38.6,78.84,37.512a1.085,1.085,0,0,0-1.251,1.773l5.763,4.064A10.317,10.317,0,0,1,85.836,57.71L83.8,60.592A3.119,3.119,0,1,1,78.706,57L79.8,55.454a5.439,5.439,0,0,0-1.309-7.571L70.07,41.949A7.42,7.42,0,0,1,68.284,31.622Zm9.839,37.811a2.17,2.17,0,1,1-2.17-2.17c.033,0,.066,0,.1.005L75.04,68.847a1.085,1.085,0,1,0,1.827,1.171l1.013-1.58A2.154,2.154,0,0,1,78.123,69.433ZM66.785,42.775l1.33.4c.224.192,6.091,4.347,6.091,4.347-.054,0-11.336-3.368-11.336-3.368A3.534,3.534,0,0,1,66.785,42.775Zm6.638,6.8a2.8,2.8,0,0,0,2.752-.667l1.061.748a3.267,3.267,0,0,1,.787,4.548l-1.089,1.544a5.281,5.281,0,0,0-.77,4.464H73.738L72.355,49.255Zm24.5,30.435H62.66A3.97,3.97,0,0,1,58.7,76.044,13.66,13.66,0,0,1,72.356,62.381h5.013a5.279,5.279,0,0,0,.839.736q.175.123.358.231l-1.258,1.962a4.349,4.349,0,1,0,1.825,1.173l1.56-2.433a5.226,5.226,0,0,0,4.448-1.67h.592A12.192,12.192,0,0,1,97.922,74.57v5.439ZM95.338,63.9A14.38,14.38,0,0,0,86.7,60.248l.908-1.287A12.475,12.475,0,0,0,84.6,41.576l-2.42-1.706L86.4,31.231S99.4,40.383,99.519,40.454l.005.85a4.541,4.541,0,0,0,4.535,4.537h.6Zm17.5-22.6a2.366,2.366,0,0,1-2.365,2.367h-2.234l2.44-4.721A2.367,2.367,0,0,1,112.838,41.3Z" transform="translate(1077.794 2582.392)"/><g transform="translate(1618.086 2731.133)"><g transform="translate(32.863 0)"><path class="j" d="M86.654,46.139H84.831a2.978,2.978,0,0,0-1.855.65l-.1.077L77.018,41.71V39.045a.941.941,0,1,0-1.882,0V41.56l-.582.3a.941.941,0,1,0,.856,1.676l.526-.269L82.229,48.8a.941.941,0,0,0,1.209.029l.714-.57a1.09,1.09,0,0,1,.679-.238h1.823a.327.327,0,0,1,.327.326V51.9a.328.328,0,0,1-.327.328h-3.54L71.138,44.939l-.453-2.575,1.155-14.9.849.379a4.134,4.134,0,0,1,2.447,3.771v3.035a.941.941,0,1,0,1.882,0V31.617a6.019,6.019,0,0,0-3.562-5.49l-2.068-.922c-.021-.009-5.827-2.109-5.827-2.109a9.227,9.227,0,0,0,4.357-7.832V12.849a9.066,9.066,0,0,0-5.134-8.161,3.984,3.984,0,1,0-7.842,0,9.066,9.066,0,0,0-5.134,8.161v2.535A8.99,8.99,0,0,0,54.5,21.829a9.127,9.127,0,0,0,1.631,1.278s-5.765,2.084-5.8,2.1l-2.067.923a6.019,6.019,0,0,0-3.561,5.49V41.71l-5.862,5.155-.1-.076a2.98,2.98,0,0,0-1.855-.651H35.072a2.211,2.211,0,0,0-2.209,2.209V51.9a2.211,2.211,0,0,0,2.209,2.209h1.451c-.045.061-.09.122-.132.184s-.1.148-.143.223l-.021.033a5.641,5.641,0,0,0-.809,2.915V58.6a5.656,5.656,0,0,0,5.65,5.649H62.033a.941.941,0,0,0,0-1.882H54.541V58.019l25.495-4.274a3.769,3.769,0,0,1,4.391,3.716V58.6a3.772,3.772,0,0,1-3.768,3.767H66.425a.941.941,0,0,0,0,1.882H80.659A5.656,5.656,0,0,0,86.309,58.6V57.461a5.637,5.637,0,0,0-1.1-3.354h1.45a2.212,2.212,0,0,0,2.21-2.21v-3.55a2.212,2.212,0,0,0-2.21-2.209ZM79.11,51.992l-6.5,1.09-.676-3.638,0-.008-.357-2.029ZM60.862,55.051l-9.885-1.657.527-2.837h18.72l.527,2.836ZM42.615,51.992l7.539-4.586L49.8,49.433l0,.01-.675,3.639Zm16.146-27.8a9.12,9.12,0,0,0,2.1.245h.121a8.846,8.846,0,0,0,1.982-.253v2.355a2.1,2.1,0,0,1-4.2,0Zm0-20.21a2.1,2.1,0,1,1,4.2,0c0,.02,0,.039,0,.059a9,9,0,0,0-4.2,0c0-.02,0-.039,0-.059Zm2.1,1.693a7.133,7.133,0,0,1,2.794.567,10.8,10.8,0,0,1-4.77,2.9.941.941,0,1,0,.464,1.824,12.828,12.828,0,0,0,5.967-3.738A7.235,7.235,0,0,1,66.834,8.88a11.789,11.789,0,0,1-3.342,2.951,19.807,19.807,0,0,1-9.8,2.6V12.849a7.181,7.181,0,0,1,7.173-7.173ZM53.751,16.31c7.987-.248,12.114-3.444,13.975-5.545a7.148,7.148,0,0,1,.31,2.084v2.414a7.261,7.261,0,0,1-7.077,7.293,7.171,7.171,0,0,1-7.207-6.247ZM34.745,51.9v-3.55a.327.327,0,0,1,.327-.327H36.9a1.091,1.091,0,0,1,.679.238l.712.57A.941.941,0,0,0,39.5,48.8l6.294-5.536.525.268a.941.941,0,1,0,.856-1.676l-.582-.3V31.618a4.135,4.135,0,0,1,2.446-3.771l.849-.379.288,3.715a.941.941,0,0,0,.937.868l.074,0a.941.941,0,0,0,.865-1.011l-.336-4.33,5.164-1.867v1.7a3.984,3.984,0,0,0,7.968,0v-1.7l5.164,1.867L68.8,42.336a.934.934,0,0,0,.011.236l1.073,6.1H51.843l1.073-6.1a.939.939,0,0,0,.011-.236l-.537-6.922a.941.941,0,0,0-1.877.146l.528,6.8-.453,2.575L38.611,52.224H35.072a.327.327,0,0,1-.327-.327ZM52.659,62.366H46.335a1.457,1.457,0,0,1-.248-2.893l6.572-1.134Zm.792-6.073h-.01l-7.673,1.324a3.338,3.338,0,0,0-2.436,4.748H41.068a3.745,3.745,0,0,1-1.608-.361l-.024-.011-.005,0A3.772,3.772,0,0,1,37.3,58.6V57.461a3.769,3.769,0,0,1,2.748-3.627l.021-.006.015,0a3.766,3.766,0,0,1,1.606-.078h0L55.17,56.005Z" transform="translate(-32.863 0)"/><path class="j" d="M122.462,109.79h.327v1.087a.941.941,0,0,0,1.882,0V109.79H125a.941.941,0,0,0,0-1.882h-.327V106.82a.941.941,0,0,0-1.882,0v1.087h-.327a.941.941,0,0,0,0,1.882Z" transform="translate(-110.396 -92.593)"/><path class="j" d="M348.449,21.874h.327v1.087a.941.941,0,1,0,1.882,0V21.874h.327a.941.941,0,1,0,0-1.882h-.327V18.9a.941.941,0,1,0-1.882,0v1.087h-.327a.941.941,0,1,0,0,1.882Z" transform="translate(-308.025 -15.709)"/><path class="j" d="M384.7,145.461h.327v1.087a.941.941,0,1,0,1.882,0v-1.087h.327a.941.941,0,1,0,0-1.882h-.327v-1.087a.941.941,0,1,0-1.882,0v1.087H384.7a.941.941,0,1,0,0,1.882Z" transform="translate(-339.723 -123.788)"/><path class="j" d="M204.6,286.588a4.967,4.967,0,0,0,6.075-.515,4.97,4.97,0,0,0,6.075.515.941.941,0,0,0-1.027-1.577,3.082,3.082,0,0,1-4.26-.9.941.941,0,0,0-1.577,0,3.078,3.078,0,0,1-4.26.9.941.941,0,0,0-1.027,1.577Z" transform="translate(-182.678 -248.085)"/></g></g></g></svg>